<svg width="56" height="56" viewBox="0 0 56 56" fill="none" xmlns="http://www.w3.org/2000/svg">
<g filter="url(#filter0_d_7020_909)">
<rect x="4" y="2" width="48" height="48" rx="24" fill="#FCFAF7" shape-rendering="crispEdges"/>
<g clip-path="url(#clip0_7020_909)">
<path d="M39.707 14.293C39.5195 14.1056 39.2652 14.0002 39 14.0002C38.7349 14.0002 38.4806 14.1056 38.293 14.293L28 24.586L17.707 14.293C17.5195 14.1056 17.2652 14.0002 17 14.0002C16.7349 14.0002 16.4806 14.1056 16.293 14.293C16.1056 14.4806 16.0002 14.7349 16.0002 15C16.0002 15.2652 16.1056 15.5195 16.293 15.707L26.586 26L16.293 36.293C16.1056 36.4806 16.0002 36.7349 16.0002 37C16.0002 37.2652 16.1056 37.5195 16.293 37.707C16.4806 37.8945 16.7349 37.9998 17 37.9998C17.2652 37.9998 17.5195 37.8945 17.707 37.707L28 27.414L38.293 37.707C38.4806 37.8945 38.7349 37.9998 39 37.9998C39.2652 37.9998 39.5195 37.8945 39.707 37.707C39.8945 37.5195 39.9998 37.2652 39.9998 37C39.9998 36.7349 39.8945 36.4806 39.707 36.293L29.414 26L39.707 15.707C39.8945 15.5195 39.9998 15.2652 39.9998 15C39.9998 14.7349 39.8945 14.4806 39.707 14.293Z" fill="#3B3748"/>
</g>
</g>
<defs>
<filter id="filter0_d_7020_909" x="0" y="0" width="56" height="56" filterUnits="userSpaceOnUse" color-interpolation-filters="sRGB">
<feFlood flood-opacity="0" result="BackgroundImageFix"/>
<feColorMatrix in="SourceAlpha" type="matrix" values="0 0 0 0 0 0 0 0 0 0 0 0 0 0 0 0 0 0 127 0" result="hardAlpha"/>
<feOffset dy="2"/>
<feGaussianBlur stdDeviation="2"/>
<feComposite in2="hardAlpha" operator="out"/>
<feColorMatrix type="matrix" values="0 0 0 0 0.231373 0 0 0 0 0.215686 0 0 0 0 0.282353 0 0 0 0.12 0"/>
<feBlend mode="normal" in2="BackgroundImageFix" result="effect1_dropShadow_7020_909"/>
<feBlend mode="normal" in="SourceGraphic" in2="effect1_dropShadow_7020_909" result="shape"/>
</filter>
<clipPath id="clip0_7020_909">
<rect width="24" height="24" fill="white" transform="translate(16 14)"/>
</clipPath>
</defs>
</svg>
