<svg width="25" height="23" viewBox="0 0 25 23" fill="none" xmlns="http://www.w3.org/2000/svg">
<path d="M17.8335 0.916992C16.7074 0.934507 15.6059 1.24885 14.6402 1.82826C13.6745 2.40768 12.8788 3.23166 12.3335 4.21699C11.7881 3.23166 10.9924 2.40768 10.0267 1.82826C9.061 1.24885 7.9595 0.934507 6.83345 0.916992C5.0384 0.994983 3.34716 1.78025 2.12924 3.10122C0.911314 4.4222 0.265704 6.17152 0.333454 7.96699C0.333454 12.514 5.11945 17.48 9.13345 20.847C10.0297 21.6001 11.1628 22.013 12.3335 22.013C13.5041 22.013 14.6372 21.6001 15.5335 20.847C19.5475 17.48 24.3335 12.514 24.3335 7.96699C24.4012 6.17152 23.7556 4.4222 22.5377 3.10122C21.3197 1.78025 19.6285 0.994983 17.8335 0.916992ZM14.2485 19.317C13.7124 19.7684 13.0342 20.0159 12.3335 20.0159C11.6327 20.0159 10.9545 19.7684 10.4185 19.317C5.28045 15.006 2.33345 10.87 2.33345 7.96699C2.26509 6.70171 2.69982 5.46072 3.54282 4.51469C4.38581 3.56866 5.56869 2.99434 6.83345 2.91699C8.09822 2.99434 9.28109 3.56866 10.1241 4.51469C10.9671 5.46072 11.4018 6.70171 11.3335 7.96699C11.3335 8.23221 11.4388 8.48656 11.6263 8.6741C11.8139 8.86164 12.0682 8.96699 12.3335 8.96699C12.5987 8.96699 12.853 8.86164 13.0406 8.6741C13.2281 8.48656 13.3335 8.23221 13.3335 7.96699C13.2651 6.70171 13.6998 5.46072 14.5428 4.51469C15.3858 3.56866 16.5687 2.99434 17.8335 2.91699C19.0982 2.99434 20.2811 3.56866 21.1241 4.51469C21.9671 5.46072 22.4018 6.70171 22.3335 7.96699C22.3335 10.87 19.3865 15.006 14.2485 19.313V19.317Z" fill="#3B3748"/>
</svg>
