<svg xmlns="http://www.w3.org/2000/svg" width="44" height="44" fill="none"><g filter="url(#a)"><rect width="36" height="36" x="4" y="2" fill="#7100FF" rx="18" shape-rendering="crispEdges"/><path fill="#fff" d="M26 26.667h-3.333v-5.374a6 6 0 0 0 3.804-1.962c.984-1.099 1.528-2.856 1.53-4.331.002-.776-.15-1.877-.448-2.593a.667.667 0 0 0-.146-.214l-.074-.053a.63.63 0 0 0-.327-.14H17a.625.625 0 0 0-.193.04c-.049.028-.096.06-.14.093l-.08.06a.667.667 0 0 0-.147.214c-.296.716-.446 1.818-.44 2.593 0 1.475.545 3.232 1.529 4.331a6 6 0 0 0 3.804 1.962v5.374H18A.667.667 0 0 0 18 28h8a.666.666 0 1 0 0-1.333ZM17.333 15c0-.451.064-1.234.194-1.667h8.946c.13.433.195 1.216.194 1.667 0 1.238-.492 2.758-1.367 3.633a4.667 4.667 0 0 1-6.6 0c-.875-.875-1.367-2.395-1.367-3.633Z"/></g><defs><filter id="a" width="44" height="44" x="0" y="0" color-interpolation-filters="sRGB" filterUnits="userSpaceOnUse"><feFlood flood-opacity="0" result="BackgroundImageFix"/><feColorMatrix in="SourceAlpha" result="hardAlpha" values="0 0 0 0 0 0 0 0 0 0 0 0 0 0 0 0 0 0 127 0"/><feOffset dy="2"/><feGaussianBlur stdDeviation="2"/><feComposite in2="hardAlpha" operator="out"/><feColorMatrix values="0 0 0 0 0.231373 0 0 0 0 0.215686 0 0 0 0 0.282353 0 0 0 0.12 0"/><feBlend in2="BackgroundImageFix" result="effect1_dropShadow_1423_4072"/><feBlend in="SourceGraphic" in2="effect1_dropShadow_1423_4072" result="shape"/></filter></defs></svg>