<svg width="44" height="44" viewBox="0 0 44 44" fill="none" xmlns="http://www.w3.org/2000/svg">
<g filter="url(#filter0_d_1423_4071)">
<rect x="4" y="2" width="36" height="36" rx="18" fill="#7100FF" shape-rendering="crispEdges"/>
<g clip-path="url(#clip0_1423_4071)">
<path d="M29.9166 17.0436C29.7306 16.3905 29.2953 15.8366 28.7046 15.5016L23.7886 13.1596C23.2571 12.8421 22.6507 12.672 22.0317 12.6668C21.4127 12.6615 20.8034 12.8212 20.2666 13.1296L15.2953 15.5016C15.2766 15.5109 15.2573 15.5209 15.2393 15.5316C14.8581 15.7496 14.5421 16.0656 14.3243 16.4468C14.1064 16.8281 13.9945 17.2607 14.0002 17.6997C14.0059 18.1388 14.129 18.5684 14.3568 18.9438C14.5845 19.3193 14.9085 19.627 15.2953 19.8349L16.6666 20.4883V23.7549C16.667 24.4666 16.8949 25.1595 17.3169 25.7326C17.7389 26.3056 18.3331 26.7288 19.0126 26.9403C19.9832 27.221 20.9896 27.3585 21.9999 27.3483C23.0101 27.3596 24.0165 27.2233 24.9873 26.9436C25.6668 26.7321 26.2609 26.3089 26.683 25.7359C27.105 25.1629 27.3329 24.4699 27.3333 23.7583V20.4869L28.6666 19.8496V25.3483C28.6666 25.5251 28.7368 25.6946 28.8619 25.8197C28.9869 25.9447 29.1565 26.0149 29.3333 26.0149C29.5101 26.0149 29.6797 25.9447 29.8047 25.8197C29.9297 25.6946 29.9999 25.5251 29.9999 25.3483V17.3483C29.9978 17.2414 29.9691 17.1367 29.9166 17.0436ZM25.9999 23.7583C26.0001 24.184 25.8644 24.5987 25.6126 24.9419C25.3608 25.2852 25.0061 25.5392 24.5999 25.6669C23.7547 25.9084 22.8789 26.0256 21.9999 26.0149C21.121 26.0256 20.2451 25.9084 19.3999 25.6669C18.9938 25.5392 18.6391 25.2852 18.3873 24.9419C18.1355 24.5987 17.9998 24.184 17.9999 23.7583V21.1236L20.2113 22.1769C20.7569 22.5009 21.38 22.6712 22.0146 22.6696C22.6186 22.6739 23.2124 22.514 23.7326 22.2069L25.9999 21.1236V23.7583ZM28.1333 18.6316L23.1053 21.0316C22.7612 21.2319 22.3692 21.335 21.9711 21.3297C21.573 21.3244 21.1839 21.211 20.8453 21.0016L15.9259 18.6616C15.7489 18.5661 15.6006 18.425 15.4964 18.2529C15.3922 18.0808 15.3359 17.884 15.3334 17.6828C15.3309 17.4817 15.3822 17.2835 15.4821 17.1089C15.5819 16.9342 15.7266 16.7895 15.9013 16.6896L20.8979 14.3029C21.2421 14.103 21.6341 14.0002 22.0321 14.0055C22.4301 14.0108 22.8192 14.1239 23.1579 14.3329L28.0739 16.6749C28.2515 16.7735 28.3999 16.9174 28.504 17.0918C28.6081 17.2663 28.6642 17.4651 28.6666 17.6683C28.6669 17.8609 28.6181 18.0505 28.5248 18.219C28.4315 18.3876 28.2967 18.5296 28.1333 18.6316Z" fill="white"/>
</g>
</g>
<defs>
<filter id="filter0_d_1423_4071" x="0" y="0" width="44" height="44" filterUnits="userSpaceOnUse" color-interpolation-filters="sRGB">
<feFlood flood-opacity="0" result="BackgroundImageFix"/>
<feColorMatrix in="SourceAlpha" type="matrix" values="0 0 0 0 0 0 0 0 0 0 0 0 0 0 0 0 0 0 127 0" result="hardAlpha"/>
<feOffset dy="2"/>
<feGaussianBlur stdDeviation="2"/>
<feComposite in2="hardAlpha" operator="out"/>
<feColorMatrix type="matrix" values="0 0 0 0 0.231373 0 0 0 0 0.215686 0 0 0 0 0.282353 0 0 0 0.12 0"/>
<feBlend mode="normal" in2="BackgroundImageFix" result="effect1_dropShadow_1423_4071"/>
<feBlend mode="normal" in="SourceGraphic" in2="effect1_dropShadow_1423_4071" result="shape"/>
</filter>
<clipPath id="clip0_1423_4071">
<rect width="16" height="16" fill="white" transform="translate(14 12)"/>
</clipPath>
</defs>
</svg>
