<svg width="44" height="44" viewBox="0 0 44 44" fill="none" xmlns="http://www.w3.org/2000/svg">
<g filter="url(#filter0_d_1423_4075)">
<rect x="4" y="2" width="36" height="36" rx="18" fill="#7100FF" shape-rendering="crispEdges"/>
<g clip-path="url(#clip0_1423_4075)">
<path d="M29.9995 27.3328C29.9995 27.5096 29.9292 27.6792 29.8042 27.8042C29.6792 27.9293 29.5096 27.9995 29.3328 27.9995H14.6662C14.4893 27.9995 14.3198 27.9293 14.1947 27.8042C14.0697 27.6792 13.9995 27.5096 13.9995 27.3328C13.9995 27.156 14.0697 26.9864 14.1947 26.8614C14.3198 26.7364 14.4893 26.6662 14.6662 26.6662H29.3328C29.5096 26.6662 29.6792 26.7364 29.8042 26.8614C29.9292 26.9864 29.9995 27.156 29.9995 27.3328ZM14.1935 17.7008C14.0498 17.4344 13.9833 17.1332 14.0013 16.831C14.0193 16.5288 14.1212 16.2376 14.2955 15.9902C14.5803 15.5722 14.9618 15.2292 15.4075 14.9902L20.4082 12.3875C20.8997 12.1319 21.4455 11.9985 21.9995 11.9985C22.5535 11.9985 23.0993 12.1319 23.5908 12.3875L28.5908 14.9922C29.0365 15.2312 29.418 15.5742 29.7028 15.9922C29.8771 16.2396 29.979 16.5308 29.997 16.833C30.015 17.1352 29.9485 17.4364 29.8048 17.7028C29.6502 17.9954 29.4182 18.2399 29.1342 18.4097C28.8502 18.5796 28.5251 18.6683 28.1942 18.6662H27.9995V23.9995H28.6662C28.843 23.9995 29.0125 24.0697 29.1376 24.1948C29.2626 24.3198 29.3328 24.4893 29.3328 24.6662C29.3328 24.843 29.2626 25.0125 29.1376 25.1376C29.0125 25.2626 28.843 25.3328 28.6662 25.3328H15.3328C15.156 25.3328 14.9864 25.2626 14.8614 25.1376C14.7364 25.0125 14.6662 24.843 14.6662 24.6662C14.6662 24.4893 14.7364 24.3198 14.8614 24.1948C14.9864 24.0697 15.156 23.9995 15.3328 23.9995H15.9995V18.6662H15.8048C15.4736 18.6682 15.1482 18.5793 14.864 18.4091C14.5799 18.2388 14.3479 17.9938 14.1935 17.7008ZM17.3328 23.9995H19.3328V18.6662H17.3328V23.9995ZM20.6662 18.6662V23.9995H23.3328V18.6662H20.6662ZM26.6662 18.6662H24.6662V23.9995H26.6662V18.6662ZM15.3748 17.0828C15.4166 17.1599 15.4789 17.2241 15.5547 17.2682C15.6306 17.3123 15.7171 17.3346 15.8048 17.3328H28.1942C28.2819 17.3346 28.3684 17.3123 28.4442 17.2682C28.5201 17.2241 28.5823 17.1599 28.6242 17.0828C28.6546 17.0319 28.6694 16.973 28.6665 16.9137C28.6637 16.8544 28.6434 16.7973 28.6082 16.7495C28.4466 16.5094 28.2296 16.3118 27.9755 16.1735L22.9755 13.5688C22.6742 13.4124 22.3396 13.3308 22.0002 13.3308C21.6607 13.3308 21.3261 13.4124 21.0248 13.5688L16.0248 16.1735C15.7708 16.3123 15.5538 16.5101 15.3922 16.7502C15.3569 16.7978 15.3364 16.8547 15.3333 16.9139C15.3303 16.973 15.3447 17.0318 15.3748 17.0828Z" fill="white"/>
</g>
</g>
<defs>
<filter id="filter0_d_1423_4075" x="0" y="0" width="44" height="44" filterUnits="userSpaceOnUse" color-interpolation-filters="sRGB">
<feFlood flood-opacity="0" result="BackgroundImageFix"/>
<feColorMatrix in="SourceAlpha" type="matrix" values="0 0 0 0 0 0 0 0 0 0 0 0 0 0 0 0 0 0 127 0" result="hardAlpha"/>
<feOffset dy="2"/>
<feGaussianBlur stdDeviation="2"/>
<feComposite in2="hardAlpha" operator="out"/>
<feColorMatrix type="matrix" values="0 0 0 0 0.231373 0 0 0 0 0.215686 0 0 0 0 0.282353 0 0 0 0.12 0"/>
<feBlend mode="normal" in2="BackgroundImageFix" result="effect1_dropShadow_1423_4075"/>
<feBlend mode="normal" in="SourceGraphic" in2="effect1_dropShadow_1423_4075" result="shape"/>
</filter>
<clipPath id="clip0_1423_4075">
<rect width="16" height="16" fill="white" transform="translate(14 12)"/>
</clipPath>
</defs>
</svg>
