<svg width="44" height="44" viewBox="0 0 44 44" fill="none" xmlns="http://www.w3.org/2000/svg">
<g filter="url(#filter0_d_1423_4076)">
<rect x="4" y="2" width="36" height="36" rx="18" fill="#7100FF" shape-rendering="crispEdges"/>
<g clip-path="url(#clip0_1423_4076)">
<path d="M19 20.6667C18.4067 20.6667 17.8266 20.4907 17.3333 20.1611C16.8399 19.8314 16.4554 19.3629 16.2284 18.8147C16.0013 18.2665 15.9419 17.6633 16.0576 17.0814C16.1734 16.4995 16.4591 15.9649 16.8787 15.5453C17.2982 15.1258 17.8328 14.8401 18.4147 14.7243C18.9967 14.6086 19.5999 14.668 20.1481 14.895C20.6962 15.1221 21.1648 15.5066 21.4944 16C21.8241 16.4933 22 17.0733 22 17.6667C21.9991 18.462 21.6828 19.2246 21.1203 19.787C20.5579 20.3494 19.7954 20.6658 19 20.6667ZM19 16C18.6704 16 18.3481 16.0977 18.074 16.2809C17.8 16.464 17.5863 16.7243 17.4602 17.0289C17.3341 17.3334 17.301 17.6685 17.3654 17.9918C17.4297 18.3151 17.5884 18.6121 17.8215 18.8452C18.0546 19.0783 18.3515 19.237 18.6748 19.3013C18.9982 19.3656 19.3333 19.3326 19.6378 19.2065C19.9423 19.0803 20.2026 18.8667 20.3858 18.5926C20.5689 18.3185 20.6667 17.9963 20.6667 17.6667C20.6667 17.2246 20.4911 16.8007 20.1785 16.4882C19.866 16.1756 19.442 16 19 16ZM24 27.3333V27C24 25.6739 23.4732 24.4021 22.5355 23.4645C21.5979 22.5268 20.3261 22 19 22C17.6739 22 16.4021 22.5268 15.4645 23.4645C14.5268 24.4021 14 25.6739 14 27L14 27.3333C14 27.5101 14.0702 27.6797 14.1953 27.8047C14.3203 27.9298 14.4899 28 14.6667 28C14.8435 28 15.013 27.9298 15.1381 27.8047C15.2631 27.6797 15.3333 27.5101 15.3333 27.3333V27C15.3333 26.0275 15.7196 25.0949 16.4073 24.4073C17.0949 23.7196 18.0275 23.3333 19 23.3333C19.9725 23.3333 20.9051 23.7196 21.5927 24.4073C22.2804 25.0949 22.6667 26.0275 22.6667 27V27.3333C22.6667 27.5101 22.7369 27.6797 22.8619 27.8047C22.987 27.9298 23.1565 28 23.3333 28C23.5101 28 23.6797 27.9298 23.8047 27.8047C23.9298 27.6797 24 27.5101 24 27.3333ZM30 24C30 23.0991 29.7392 22.2175 29.2491 21.4616C28.7591 20.7056 28.0607 20.1077 27.2383 19.74C26.4159 19.3722 25.5046 19.2504 24.6145 19.3892C23.7244 19.5279 22.8934 19.9214 22.222 20.522C22.1558 20.5801 22.1019 20.6508 22.0632 20.7299C22.0245 20.809 22.0019 20.895 21.9966 20.9829C21.9913 21.0708 22.0035 21.1589 22.0325 21.2421C22.0615 21.3253 22.1066 21.4019 22.1654 21.4675C22.2241 21.5331 22.2953 21.5864 22.3747 21.6244C22.4542 21.6623 22.5404 21.6842 22.6284 21.6886C22.7163 21.6931 22.8043 21.68 22.8872 21.6503C22.9701 21.6206 23.0463 21.5747 23.1113 21.5153C23.591 21.0864 24.1845 20.8055 24.8203 20.7064C25.456 20.6074 26.1069 20.6945 26.6943 20.9572C27.2816 21.2199 27.7804 21.647 28.1304 22.1869C28.4804 22.7269 28.6667 23.3566 28.6667 24C28.6667 24.1768 28.7369 24.3464 28.8619 24.4714C28.987 24.5964 29.1565 24.6667 29.3333 24.6667C29.5101 24.6667 29.6797 24.5964 29.8047 24.4714C29.9298 24.3464 30 24.1768 30 24ZM25.6667 18C25.0733 18 24.4933 17.8241 24 17.4944C23.5066 17.1648 23.1221 16.6962 22.895 16.1481C22.668 15.5999 22.6086 14.9967 22.7243 14.4147C22.8401 13.8328 23.1258 13.2982 23.5453 12.8787C23.9649 12.4591 24.4995 12.1734 25.0814 12.0576C25.6633 11.9419 26.2665 12.0013 26.8147 12.2284C27.3629 12.4554 27.8314 12.8399 28.1611 13.3333C28.4907 13.8266 28.6667 14.4067 28.6667 15C28.6658 15.7954 28.3494 16.5579 27.787 17.1203C27.2246 17.6828 26.462 17.9991 25.6667 18ZM25.6667 13.3333C25.337 13.3333 25.0148 13.4311 24.7407 13.6142C24.4666 13.7974 24.253 14.0577 24.1269 14.3622C24.0007 14.6667 23.9677 15.0018 24.032 15.3252C24.0963 15.6485 24.2551 15.9454 24.4882 16.1785C24.7212 16.4116 25.0182 16.5703 25.3415 16.6346C25.6648 16.699 25.9999 16.6659 26.3045 16.5398C26.609 16.4137 26.8693 16.2 27.0525 15.926C27.2356 15.6519 27.3333 15.3296 27.3333 15C27.3333 14.558 27.1577 14.1341 26.8452 13.8215C26.5326 13.5089 26.1087 13.3333 25.6667 13.3333Z" fill="white"/>
</g>
</g>
<defs>
<filter id="filter0_d_1423_4076" x="0" y="0" width="44" height="44" filterUnits="userSpaceOnUse" color-interpolation-filters="sRGB">
<feFlood flood-opacity="0" result="BackgroundImageFix"/>
<feColorMatrix in="SourceAlpha" type="matrix" values="0 0 0 0 0 0 0 0 0 0 0 0 0 0 0 0 0 0 127 0" result="hardAlpha"/>
<feOffset dy="2"/>
<feGaussianBlur stdDeviation="2"/>
<feComposite in2="hardAlpha" operator="out"/>
<feColorMatrix type="matrix" values="0 0 0 0 0.231373 0 0 0 0 0.215686 0 0 0 0 0.282353 0 0 0 0.12 0"/>
<feBlend mode="normal" in2="BackgroundImageFix" result="effect1_dropShadow_1423_4076"/>
<feBlend mode="normal" in="SourceGraphic" in2="effect1_dropShadow_1423_4076" result="shape"/>
</filter>
<clipPath id="clip0_1423_4076">
<rect width="16" height="16" fill="white" transform="translate(14 12)"/>
</clipPath>
</defs>
</svg>
