<svg width="44" height="44" viewBox="0 0 44 44" fill="none" xmlns="http://www.w3.org/2000/svg">
<g filter="url(#filter0_d_1423_4073)">
<rect x="4" y="2" width="36" height="36" rx="18" fill="#7100FF" shape-rendering="crispEdges"/>
<path d="M19.3333 24H23.3333C24.2174 24 25.0652 23.6489 25.6904 23.0237C26.3155 22.3986 26.6667 21.5508 26.6667 20.6667V19.3334H28C29.3387 19.3334 30 18.2106 30 17C30 15.7894 29.3387 14.6667 28 14.6667H26.6667V14C26.6667 13.8232 26.5964 13.6537 26.4714 13.5286C26.3464 13.4036 26.1768 13.3334 26 13.3334H16.6667C16.4899 13.3334 16.3203 13.4036 16.1953 13.5286C16.0702 13.6537 16 13.8232 16 14V20.6667C16 21.5508 16.3512 22.3986 16.9763 23.0237C17.6014 23.6489 18.4493 24 19.3333 24ZM26.6667 16H28C28.5417 16 28.6667 16.5508 28.6667 17C28.6667 17.4493 28.5417 18 28 18H26.6667V16ZM17.3333 14.6667H25.3333V20.6667C25.3333 21.1971 25.1226 21.7058 24.7475 22.0809C24.3725 22.456 23.8638 22.6667 23.3333 22.6667H19.3333C18.8029 22.6667 18.2942 22.456 17.9191 22.0809C17.544 21.7058 17.3333 21.1971 17.3333 20.6667V14.6667ZM28 25.3334H14.6667C14.4899 25.3334 14.3203 25.4036 14.1953 25.5286C14.0702 25.6537 14 25.8232 14 26C14 26.1769 14.0702 26.3464 14.1953 26.4714C14.3203 26.5965 14.4899 26.6667 14.6667 26.6667H28C28.1768 26.6667 28.3464 26.5965 28.4714 26.4714C28.5964 26.3464 28.6667 26.1769 28.6667 26C28.6667 25.8232 28.5964 25.6537 28.4714 25.5286C28.3464 25.4036 28.1768 25.3334 28 25.3334Z" fill="white"/>
</g>
<defs>
<filter id="filter0_d_1423_4073" x="0" y="0" width="44" height="44" filterUnits="userSpaceOnUse" color-interpolation-filters="sRGB">
<feFlood flood-opacity="0" result="BackgroundImageFix"/>
<feColorMatrix in="SourceAlpha" type="matrix" values="0 0 0 0 0 0 0 0 0 0 0 0 0 0 0 0 0 0 127 0" result="hardAlpha"/>
<feOffset dy="2"/>
<feGaussianBlur stdDeviation="2"/>
<feComposite in2="hardAlpha" operator="out"/>
<feColorMatrix type="matrix" values="0 0 0 0 0.231373 0 0 0 0 0.215686 0 0 0 0 0.282353 0 0 0 0.12 0"/>
<feBlend mode="normal" in2="BackgroundImageFix" result="effect1_dropShadow_1423_4073"/>
<feBlend mode="normal" in="SourceGraphic" in2="effect1_dropShadow_1423_4073" result="shape"/>
</filter>
</defs>
</svg>
