<svg width="44" height="44" viewBox="0 0 44 44" fill="none" xmlns="http://www.w3.org/2000/svg">
<g filter="url(#filter0_d_1423_4077)">
<rect x="4" y="2" width="36" height="36" rx="18" fill="#7100FF" shape-rendering="crispEdges"/>
<g clip-path="url(#clip0_1423_4077)">
<path d="M30 18.6667C30 18.618 29.9947 18.5695 29.984 18.522L29.1173 14.61C28.9563 13.8675 28.5449 13.2029 27.9521 12.7277C27.3593 12.2525 26.6211 11.9956 25.8613 12H18.1387C17.3794 11.9962 16.6418 12.2534 16.0496 12.7286C15.4573 13.2037 15.0463 13.8679 14.8853 14.61L14.016 18.522C14.0053 18.5695 14 18.618 14 18.6667V19.3333C13.9995 19.9824 14.2366 20.6092 14.6667 21.0953V24.6667C14.6677 25.5504 15.0193 26.3976 15.6441 27.0225C16.269 27.6474 17.1163 27.9989 18 28H26C26.8837 27.9989 27.731 27.6474 28.3559 27.0225C28.9807 26.3976 29.3323 25.5504 29.3333 24.6667V21.0953C29.7634 20.6092 30.0005 19.9824 30 19.3333V18.6667ZM15.3333 18.7393L16.1867 14.8993C16.2834 14.4542 16.53 14.0557 16.8853 13.7706C17.2407 13.4856 17.6831 13.3312 18.1387 13.3333H18.6667V15.3333C18.6667 15.5101 18.7369 15.6797 18.8619 15.8047C18.987 15.9298 19.1565 16 19.3333 16C19.5101 16 19.6797 15.9298 19.8047 15.8047C19.9298 15.6797 20 15.5101 20 15.3333V13.3333H24V15.3333C24 15.5101 24.0702 15.6797 24.1953 15.8047C24.3203 15.9298 24.4899 16 24.6667 16C24.8435 16 25.013 15.9298 25.1381 15.8047C25.2631 15.6797 25.3333 15.5101 25.3333 15.3333V13.3333H25.8613C26.3169 13.3312 26.7593 13.4856 27.1147 13.7706C27.47 14.0557 27.7166 14.4542 27.8133 14.8993L28.6667 18.7393V19.3333C28.6667 19.6869 28.5262 20.0261 28.2761 20.2761C28.0261 20.5262 27.687 20.6667 27.3333 20.6667H26.6667C26.313 20.6667 25.9739 20.5262 25.7239 20.2761C25.4738 20.0261 25.3333 19.6869 25.3333 19.3333C25.3333 19.1565 25.2631 18.9869 25.1381 18.8619C25.013 18.7369 24.8435 18.6667 24.6667 18.6667C24.4899 18.6667 24.3203 18.7369 24.1953 18.8619C24.0702 18.9869 24 19.1565 24 19.3333C24 19.6869 23.8595 20.0261 23.6095 20.2761C23.3594 20.5262 23.0203 20.6667 22.6667 20.6667H21.3333C20.9797 20.6667 20.6406 20.5262 20.3905 20.2761C20.1405 20.0261 20 19.6869 20 19.3333C20 19.1565 19.9298 18.9869 19.8047 18.8619C19.6797 18.7369 19.5101 18.6667 19.3333 18.6667C19.1565 18.6667 18.987 18.7369 18.8619 18.8619C18.7369 18.9869 18.6667 19.1565 18.6667 19.3333C18.6667 19.6869 18.5262 20.0261 18.2761 20.2761C18.0261 20.5262 17.687 20.6667 17.3333 20.6667H16.6667C16.313 20.6667 15.9739 20.5262 15.7239 20.2761C15.4738 20.0261 15.3333 19.6869 15.3333 19.3333V18.7393ZM26 26.6667H18C17.4696 26.6667 16.9609 26.4559 16.5858 26.0809C16.2107 25.7058 16 25.1971 16 24.6667V21.9153C16.2177 21.9717 16.4418 22.0002 16.6667 22H17.3333C17.7119 22.0002 18.0861 21.9196 18.431 21.7636C18.7759 21.6076 19.0835 21.3797 19.3333 21.0953C19.5831 21.3797 19.8908 21.6076 20.2357 21.7636C20.5806 21.9196 20.9548 22.0002 21.3333 22H22.6667C23.0452 22.0002 23.4194 21.9196 23.7643 21.7636C24.1092 21.6076 24.4169 21.3797 24.6667 21.0953C24.9165 21.3797 25.2241 21.6076 25.569 21.7636C25.9139 21.9196 26.2881 22.0002 26.6667 22H27.3333C27.5582 22.0002 27.7823 21.9717 28 21.9153V24.6667C28 25.1971 27.7893 25.7058 27.4142 26.0809C27.0391 26.4559 26.5304 26.6667 26 26.6667Z" fill="white"/>
</g>
</g>
<defs>
<filter id="filter0_d_1423_4077" x="0" y="0" width="44" height="44" filterUnits="userSpaceOnUse" color-interpolation-filters="sRGB">
<feFlood flood-opacity="0" result="BackgroundImageFix"/>
<feColorMatrix in="SourceAlpha" type="matrix" values="0 0 0 0 0 0 0 0 0 0 0 0 0 0 0 0 0 0 127 0" result="hardAlpha"/>
<feOffset dy="2"/>
<feGaussianBlur stdDeviation="2"/>
<feComposite in2="hardAlpha" operator="out"/>
<feColorMatrix type="matrix" values="0 0 0 0 0.231373 0 0 0 0 0.215686 0 0 0 0 0.282353 0 0 0 0.12 0"/>
<feBlend mode="normal" in2="BackgroundImageFix" result="effect1_dropShadow_1423_4077"/>
<feBlend mode="normal" in="SourceGraphic" in2="effect1_dropShadow_1423_4077" result="shape"/>
</filter>
<clipPath id="clip0_1423_4077">
<rect width="16" height="16" fill="white" transform="translate(14 12)"/>
</clipPath>
</defs>
</svg>
