<svg width="44" height="44" viewBox="0 0 44 44" fill="none" xmlns="http://www.w3.org/2000/svg">
<g filter="url(#filter0_d_1423_4078)">
<rect x="4" y="2" width="36" height="36" rx="18" fill="#7100FF" shape-rendering="crispEdges"/>
<g clip-path="url(#clip0_1423_4078)">
<path d="M15.3333 21.3333C16.0697 21.3333 16.6667 20.7363 16.6667 20C16.6667 19.2636 16.0697 18.6666 15.3333 18.6666C14.597 18.6666 14 19.2636 14 20C14 20.7363 14.597 21.3333 15.3333 21.3333Z" fill="white"/>
<path d="M22 21.3333C22.7363 21.3333 23.3333 20.7363 23.3333 20C23.3333 19.2636 22.7363 18.6666 22 18.6666C21.2636 18.6666 20.6666 19.2636 20.6666 20C20.6666 20.7363 21.2636 21.3333 22 21.3333Z" fill="white"/>
<path d="M28.6667 21.3333C29.4031 21.3333 30 20.7363 30 20C30 19.2636 29.4031 18.6666 28.6667 18.6666C27.9303 18.6666 27.3334 19.2636 27.3334 20C27.3334 20.7363 27.9303 21.3333 28.6667 21.3333Z" fill="white"/>
</g>
</g>
<defs>
<filter id="filter0_d_1423_4078" x="0" y="0" width="44" height="44" filterUnits="userSpaceOnUse" color-interpolation-filters="sRGB">
<feFlood flood-opacity="0" result="BackgroundImageFix"/>
<feColorMatrix in="SourceAlpha" type="matrix" values="0 0 0 0 0 0 0 0 0 0 0 0 0 0 0 0 0 0 127 0" result="hardAlpha"/>
<feOffset dy="2"/>
<feGaussianBlur stdDeviation="2"/>
<feComposite in2="hardAlpha" operator="out"/>
<feColorMatrix type="matrix" values="0 0 0 0 0.231373 0 0 0 0 0.215686 0 0 0 0 0.282353 0 0 0 0.12 0"/>
<feBlend mode="normal" in2="BackgroundImageFix" result="effect1_dropShadow_1423_4078"/>
<feBlend mode="normal" in="SourceGraphic" in2="effect1_dropShadow_1423_4078" result="shape"/>
</filter>
<clipPath id="clip0_1423_4078">
<rect width="16" height="16" fill="white" transform="translate(14 12)"/>
</clipPath>
</defs>
</svg>
