<svg xmlns="http://www.w3.org/2000/svg" width="44" height="44" fill="none"><g filter="url(#a)"><rect width="36" height="36" x="4" y="2" fill="#7100FF" rx="18" shape-rendering="crispEdges"/><path fill="#fff" d="M26.667 12a.666.666 0 0 0-.667.667v4.973l-.667.447v-5.42a.666.666 0 1 0-1.333 0v5.42l-.667-.447v-4.973a.666.666 0 1 0-1.333 0V18a.666.666 0 0 0 .3.553l1.7 1.14v7.64a.667.667 0 1 0 1.333 0v-7.64l1.7-1.14a.667.667 0 0 0 .3-.553v-5.333a.666.666 0 0 0-.666-.667ZM20 12a3.334 3.334 0 0 0-3.333 3.333v5.334a.667.667 0 0 0 .666.666h2v6a.666.666 0 1 0 1.334 0V12.667A.667.667 0 0 0 20 12Zm-.667 8H18v-4.667a2 2 0 0 1 1.333-1.886V20Z"/></g><defs><filter id="a" width="44" height="44" x="0" y="0" color-interpolation-filters="sRGB" filterUnits="userSpaceOnUse"><feFlood flood-opacity="0" result="BackgroundImageFix"/><feColorMatrix in="SourceAlpha" result="hardAlpha" values="0 0 0 0 0 0 0 0 0 0 0 0 0 0 0 0 0 0 127 0"/><feOffset dy="2"/><feGaussianBlur stdDeviation="2"/><feComposite in2="hardAlpha" operator="out"/><feColorMatrix values="0 0 0 0 0.231373 0 0 0 0 0.215686 0 0 0 0 0.282353 0 0 0 0.12 0"/><feBlend in2="BackgroundImageFix" result="effect1_dropShadow_1423_4074"/><feBlend in="SourceGraphic" in2="effect1_dropShadow_1423_4074" result="shape"/></filter></defs></svg>