<svg width="320" height="320" viewBox="0 0 320 320" fill="none" xmlns="http://www.w3.org/2000/svg">
<rect width="320" height="320" rx="160" fill="#FFD400"/>
<path d="M195.406 191.033C189.981 178.886 190.975 164.082 197.962 152.758C199.915 149.582 202.519 146.535 206.056 145.348C209.594 144.162 214.19 145.537 215.487 149.036C216.618 152.072 214.812 155.684 211.976 157.278C209.14 158.872 205.599 158.736 202.513 157.712C199.776 156.774 197.3 155.203 195.285 153.127C193.271 151.052 191.775 148.53 190.921 145.767C190.113 142.987 189.974 140.056 190.515 137.213C191.057 134.369 192.264 131.694 194.037 129.406" stroke="#3B3748" stroke-width="4" stroke-linecap="round" stroke-linejoin="round"/>
<path d="M192.102 115.16C155.396 117.92 118.493 116.434 82.127 110.733C84.4619 97.9352 87.5042 84.6823 95.8413 74.7047C104.178 64.7271 119.386 59.3045 130.598 65.8789C140.111 71.4663 143.74 83.4481 144.506 94.4496C165.138 96.8854 177.273 102.8 192.102 115.16" stroke="#3B3748" stroke-width="4" stroke-linecap="round" stroke-linejoin="round"/>
<path d="M160.464 117.854C168.334 132.054 173.545 147.513 175.654 163.62L147.986 170.657" stroke="#3B3748" stroke-width="4" stroke-linecap="round" stroke-linejoin="round"/>
<path d="M81.6055 110.65C76.098 111.106 70.4409 112.325 66.0445 115.671C61.648 119.018 58.8422 124.918 60.4654 130.204C62.312 136.217 69.2365 139.477 75.5208 139.156C81.8051 138.835 87.5773 135.77 93.0717 132.705" stroke="#3B3748" stroke-width="4" stroke-linecap="round" stroke-linejoin="round"/>
<path d="M84.2651 127.801C76.4694 130.427 69.7026 135.447 64.9305 142.145C61.7645 146.609 59.5576 152.556 61.9207 157.489C64.1623 162.174 69.7479 164.273 74.9211 164.733C83.3954 165.452 91.8359 163.01 98.6153 157.877" stroke="#3B3748" stroke-width="4" stroke-linecap="round" stroke-linejoin="round"/>
<path d="M136.79 128.15L135.475 136.447" stroke="#3B3748" stroke-width="4" stroke-linecap="round" stroke-linejoin="round"/>
<path d="M132.747 164.544C131.33 172.075 137.653 180.105 145.307 180.496" stroke="#3B3748" stroke-width="4" stroke-linecap="round" stroke-linejoin="round"/>
<path d="M224.717 222.142C225.971 229.588 224.884 239.206 231.138 238.303C235.261 237.783 235.092 222.428 234.649 214.11C236.867 224.304 235.877 243.624 240.953 243.236C247.463 243.574 246.566 226.189 246.87 217.641C248.389 223.955 245.158 243.197 250.659 244.407C261.342 246.121 272.522 179.359 224.884 132.293" stroke="#3B3748" stroke-width="4" stroke-linecap="round" stroke-linejoin="round"/>
<path d="M179.823 237.8C174.771 238.724 169.444 239.318 165.653 239.928C173.215 240.784 195.123 234.238 197.335 240.455C200.874 252.616 111.531 274.509 62.4805 228.236" stroke="#3B3748" stroke-width="4" stroke-linecap="round" stroke-linejoin="round"/>
<path d="M73.0449 179.366C112.756 227.668 188.085 204.364 187.404 218.658C187.404 223.515 169.514 225.549 159.78 226.25C171.947 227.349 194.282 223.404 194.562 229.356C195.383 233.982 187.963 236.323 179.832 237.815" stroke="#3B3748" stroke-width="4" stroke-linecap="round" stroke-linejoin="round"/>
<path d="M228.006 181.365C229.249 193.512 231.059 211.691 224.716 222.144C218.771 231.939 206.454 237.42 195.191 235.282" stroke="#3B3748" stroke-width="4" stroke-linecap="round" stroke-linejoin="round"/>
<path d="M173.986 209.444C192.318 208.097 210.963 203.557 228.006 196.672" stroke="#3B3748" stroke-width="4" stroke-linecap="round" stroke-linejoin="round"/>
<path d="M167.83 201.961C171.677 207.769 173.986 209.442 173.986 209.442" stroke="#3B3748" stroke-width="4" stroke-linecap="round" stroke-linejoin="round"/>
</svg>
