<svg width="320" height="320" viewBox="0 0 320 320" fill="none" xmlns="http://www.w3.org/2000/svg">
<rect width="320" height="320" rx="160" fill="#FFD400"/>
<path d="M170.506 120.705C173.123 105.397 183.676 91.6704 197.796 85.2059C201.764 83.3927 206.25 82.1142 210.452 83.2581C214.655 84.4019 218.216 88.7099 217.212 92.9506C216.334 96.6391 212.247 98.9648 208.465 98.6697C204.683 98.3747 201.333 95.9508 199.005 92.9557C194.875 87.6437 193.524 80.2838 195.498 73.8503C197.472 67.4169 202.72 62.0824 209.127 60" stroke="#3B3748" stroke-width="4" stroke-linecap="round" stroke-linejoin="round"/>
<path d="M59.4091 160.528C57.1836 163.731 54.7837 166.946 51.473 169.006C48.1622 171.066 43.7094 171.741 40.3883 169.696C36.748 167.466 35.4574 162.595 36.2028 158.391C36.9481 154.186 39.3186 150.475 41.6391 146.89" stroke="#3B3748" stroke-width="4" stroke-linecap="round" stroke-linejoin="round"/>
<path d="M45.4035 166.134C45.357 172.074 45.7694 178.972 50.5983 182.432C54.0747 184.925 58.8381 184.734 62.939 183.511C69.7034 181.467 75.496 177.038 79.2409 171.046" stroke="#3B3748" stroke-width="4" stroke-linecap="round" stroke-linejoin="round"/>
<path d="M98.0493 203.353C102.475 205.699 107.25 207.821 110.594 209.505C103.311 208.075 84.8873 195.531 81.0003 200.665C74.0424 212.883 149.838 258.69 219.065 226.889" stroke="#3B3748" stroke-width="4" stroke-linecap="round" stroke-linejoin="round"/>
<path d="M214.512 180.478C163.367 213.691 100.226 169.831 96.6547 183.326C95.2314 187.843 111.25 195.003 120.094 198.508C108.461 195.948 88.8669 185.7 86.8518 191.152C84.7246 195.211 90.9321 199.573 98.0487 203.349" stroke="#3B3748" stroke-width="4" stroke-linecap="round" stroke-linejoin="round"/>
<path d="M139.556 236.685C120.318 239.359 99.5323 237.975 80.5098 228.851" stroke="#3B3748" stroke-width="4" stroke-linecap="round" stroke-linejoin="round"/>
<path d="M155.87 139.22C120.13 144.464 83.9042 145.564 47.9121 142.498C49.3113 129.812 51.3712 116.619 58.8398 106.268C66.3084 95.9164 80.8178 89.5468 92.251 95.2263C101.95 100.038 106.331 111.521 107.844 122.242C128.202 123.198 140.496 128.149 155.87 139.225" stroke="#3B3748" stroke-width="4" stroke-linecap="round" stroke-linejoin="round"/>
<path d="M128.002 144.527C136.076 155.724 139.409 180.859 140.12 189.82" stroke="#3B3748" stroke-width="4" stroke-linecap="round" stroke-linejoin="round"/>
<path d="M166.682 190.45C167.072 175.504 172.597 156.5 180.282 143.675" stroke="#3B3748" stroke-width="4" stroke-linecap="round" stroke-linejoin="round"/>
<path d="M115.213 153.919C115.027 156.076 114.573 160.268 114.387 162.425" stroke="#3B3748" stroke-width="4" stroke-linecap="round" stroke-linejoin="round"/>
<path d="M190.476 153.074L188.887 162.987" stroke="#3B3748" stroke-width="4" stroke-linecap="round" stroke-linejoin="round"/>
<path d="M194 126.412C203.02 112.261 223.281 106.795 238.122 114.506C252.962 122.218 260.273 142.006 254.035 157.6C261.282 154.325 270.835 158.009 274.059 165.315C277.284 172.621 273.593 182.219 266.322 185.438C279.522 189.174 293.265 193.211 303.245 202.655C313.225 212.099 317.961 228.717 309.955 239.911C302.531 250.296 287.352 251.952 275.237 248.1C259.765 243.187 246.874 230.675 241.438 215.294" stroke="#3B3748" stroke-width="4" stroke-linecap="round" stroke-linejoin="round"/>
<path d="M214.455 137.374C216.465 147.967 224.589 157.173 234.851 160.492C232.43 161.552 230.282 163.149 228.57 165.161C226.857 167.174 225.624 169.549 224.965 172.108C224.346 174.677 224.32 177.353 224.888 179.934C225.456 182.515 226.603 184.932 228.243 187.004" stroke="#3B3748" stroke-width="4" stroke-linecap="round" stroke-linejoin="round"/>
<path d="M150.514 120.07C147.303 110.565 139.317 102.817 129.723 99.8843" stroke="#3B3748" stroke-width="4" stroke-linecap="round" stroke-linejoin="round"/>
<path d="M140.595 65.897C145.236 66.2006 149.618 69.118 151.687 73.2828C153.755 77.4475 153.434 82.7026 150.872 86.5845C149.111 89.2534 146.161 91.3151 142.962 91.2858C139.763 91.2564 136.579 88.6651 136.551 85.4665C136.53 83.0511 138.24 80.8549 140.414 79.8163C142.588 78.7777 145.127 78.757 147.487 79.2332C153.15 80.3736 158.149 84.4089 160.46 89.7037C162.77 94.9985 162.33 101.408 159.316 106.335" stroke="#3B3748" stroke-width="4" stroke-linecap="round" stroke-linejoin="round"/>
</svg>
