<svg width="320" height="344" viewBox="0 0 320 344" fill="none" xmlns="http://www.w3.org/2000/svg">
<rect y="12" width="320" height="320" rx="160" fill="#FFD400"/>
<path d="M172.51 157.158C174.436 150.199 179.868 144.305 186.651 141.815" stroke="#3B3748" stroke-width="4" stroke-linecap="round" stroke-linejoin="round"/>
<path d="M172 129.513C141.882 141.964 110.445 150.852 78.3146 156C76.8048 144.458 75.7592 132.319 80.0573 121.522C84.3554 110.724 95.6685 101.91 106.888 104.436C116.407 106.58 122.712 115.792 126.348 124.958C144.359 121.358 156.169 123.06 172 129.513Z" stroke="#3B3748" stroke-width="4" stroke-linecap="round" stroke-linejoin="round"/>
<path d="M107 156C104.439 162.729 98.0649 167.813 91 168.763C92.4488 169.751 93.6566 171.059 94.5318 172.588C95.407 174.118 95.9267 175.829 96.0516 177.592C96.1498 179.356 95.8498 181.121 95.1745 182.751C94.4992 184.381 93.4662 185.834 92.1537 187" stroke="#3B3748" stroke-width="4" stroke-linecap="round" stroke-linejoin="round"/>
<path d="M118.09 192C117.311 193.53 116.937 195.253 117.009 196.989C117.08 198.725 117.593 200.408 118.495 201.86C119.433 203.287 120.719 204.419 122.216 205.137C123.713 205.855 125.366 206.133 127 205.941" stroke="#3B3748" stroke-width="4" stroke-linecap="round" stroke-linejoin="round"/>
<path d="M140.312 142C150.753 155.07 156.934 171.111 158 187.902L131 198" stroke="#3B3748" stroke-width="4" stroke-linecap="round" stroke-linejoin="round"/>
<path d="M128 155L127 164" stroke="#3B3748" stroke-width="4" stroke-linecap="round" stroke-linejoin="round"/>
<path d="M78 156.174C70.7451 153.388 61.7787 155.7 56.8844 161.624C51.9901 167.547 51.5622 176.593 55.878 182.925C47.466 178.609 35.9381 183.45 32.3422 192.04C28.7464 200.63 32.6864 211.232 40.4566 216.573C48.2268 221.913 58.9474 222.242 67.657 218.529" stroke="#3B3748" stroke-width="4" stroke-linecap="round" stroke-linejoin="round"/>
<path d="M64 130L52 129" stroke="#3B3748" stroke-width="4" stroke-linecap="round" stroke-linejoin="round"/>
<path d="M56 115L67 118" stroke="#3B3748" stroke-width="4" stroke-linecap="round" stroke-linejoin="round"/>
<path d="M73 108L62 101" stroke="#3B3748" stroke-width="4" stroke-linecap="round" stroke-linejoin="round"/>
<path d="M261.286 91.0864C260 86.5865 261.284 81.4445 264.532 78.0715C267.78 74.6986 272.874 73.2242 277.422 74.3373C280.552 75.1022 283.507 77.2003 284.563 80.2416C285.618 83.2828 284.239 87.1797 281.215 88.2904C278.938 89.1264 276.27 88.2549 274.549 86.5449C272.828 84.8349 271.945 82.4355 271.597 80.0368C270.761 74.2828 272.893 68.1708 277.132 64.1938C281.371 60.2168 287.6 58.4563 293.295 59.6432" stroke="#3B3748" stroke-width="4" stroke-linecap="round" stroke-linejoin="round"/>
<path d="M210.219 124.485C207.6 114.078 208.967 102.651 213.533 96.1969C215.899 92.8538 220.504 90.1865 224.497 91.3719C226.925 92.0921 230.735 95.7376 231.129 101.048C231.974 112.402 220.423 122.022 215.504 130.02C221.689 126.778 228.146 123.585 235.11 123.081C242.074 122.578 249.736 125.396 252.973 131.579C256.38 138.09 253.609 146.83 247.556 151.001C241.504 155.172 233.041 154.974 226.613 151.395C220.185 147.817 215.739 141.29 213.648 134.248C217.454 143.352 218.178 153.45 215.711 163.004C214.393 168.04 210.827 173.705 205.65 173.15C199.946 172.539 198.013 165.173 198.329 159.448C198.912 149.218 202.095 139.306 207.578 130.647C200.003 130.772 191.898 130.747 185.603 126.538C179.307 122.329 176.46 112.245 182.079 107.159C187.02 102.695 194.43 102.673 199.974 107.452C205.019 111.798 209.05 117.925 210.213 124.481" stroke="#3B3748" stroke-width="4" stroke-linecap="round" stroke-linejoin="round"/>
<path d="M217.639 146.991C226.073 160.877 231.055 176.708 232.532 192.873" stroke="#3B3748" stroke-width="4" stroke-linecap="round" stroke-linejoin="round"/>
<path d="M232.54 189.284C241.767 165.755 261.77 146.699 285.726 138.614C273.997 159.89 254.832 179.604 232.54 189.284Z" stroke="#3B3748" stroke-width="4" stroke-linecap="round" stroke-linejoin="round"/>
<path d="M230.603 207.128C228.046 210.348 225.151 213.515 223.189 215.881C228.197 212.416 237.935 196.918 242.548 199.5C251.099 204.96 208.825 265.249 154.856 263.239" stroke="#3B3748" stroke-width="4" stroke-linecap="round" stroke-linejoin="round"/>
<path d="M135.435 228.229C184.85 236.385 217.933 182.635 225.061 191.608C227.619 194.537 217.919 205.189 212.418 210.74C220.331 204.988 231.705 190.836 235.013 194.272C237.95 196.625 234.713 201.947 230.602 207.128" stroke="#3B3748" stroke-width="4" stroke-linecap="round" stroke-linejoin="round"/>
</svg>
