<svg width="410" height="316" viewBox="0 0 410 316" fill="none" xmlns="http://www.w3.org/2000/svg">
<g clip-path="url(#clip0_1990_9344)">
<path d="M119.294 106.371C106.279 129.064 100.661 155.228 103.216 181.243L147.913 189.858" stroke="#3B3748" stroke-width="4" stroke-linecap="round" stroke-linejoin="round"/>
<path d="M143.724 118.253V131.867" stroke="#3B3748" stroke-width="4" stroke-linecap="round" stroke-linejoin="round"/>
<path d="M186.635 118.435C193.015 113.291 199.595 108.032 207.452 105.648C215.31 103.265 224.81 104.422 230.176 110.61C235.69 116.974 235.322 126.552 232.969 134.63C226.28 157.566 205.12 175.609 181.349 178.638" stroke="#3B3748" stroke-width="4" stroke-linecap="round" stroke-linejoin="round"/>
<path d="M207.045 126.512C209.6 133.367 207.738 141.645 202.491 146.757" stroke="#3B3748" stroke-width="4" stroke-linecap="round" stroke-linejoin="round"/>
<path d="M163.81 196.876C164.633 198.498 165.474 200.188 165.514 202.004C165.553 203.82 164.546 205.798 162.782 206.256C160.026 206.976 157.894 203.918 156.699 201.34C155.503 198.761 154.527 195.097 156.889 193.457C158.476 192.36 160.782 193.006 162.134 194.382C163.485 195.758 164.107 197.667 164.686 199.502" stroke="#3B3748" stroke-width="4" stroke-linecap="round" stroke-linejoin="round"/>
<path d="M170.504 79.1978C183.392 71.041 198.996 68.141 214.335 70.5137C228.352 72.8865 241.047 78.4228 250.039 90.0227C255.593 97.6681 257.709 108.213 252.501 116.062C258.632 118.672 252.996 115.271 252.501 116.062C258.632 118.672 263.937 123.014 267.933 128.31C271.95 133.618 274.614 139.819 275.696 146.38C276.759 152.924 276.006 159.633 273.519 165.781C270.994 171.921 266.998 177.352 261.882 181.599C256.831 185.817 250.75 188.849 244.263 190.083C243.464 190.235 242.662 190.36 241.856 190.457C247.958 192.513 254.062 194.599 259.986 197.132C271.2 202.075 282.043 208.139 288.919 219.212C295.002 229.493 297.118 242.148 291.3 252.461" stroke="#3B3748" stroke-width="4" stroke-linecap="round" stroke-linejoin="round"/>
<path d="M121.716 73.5931L109.148 64.9169" stroke="#3B3748" stroke-width="4" stroke-linecap="round" stroke-linejoin="round"/>
<path d="M135.659 64.5134L129.795 48.7322" stroke="#3B3748" stroke-width="4" stroke-linecap="round" stroke-linejoin="round"/>
<path d="M153.518 59.2802L155.512 45.1151" stroke="#3B3748" stroke-width="4" stroke-linecap="round" stroke-linejoin="round"/>
<path d="M197.757 198.06C194.241 207.072 188.118 214.839 180.167 220.377" stroke="#3B3748" stroke-width="4" stroke-linecap="round" stroke-linejoin="round"/>
<path d="M288.258 115.826C311.143 122.362 337.12 116.923 355.435 101.759C360.573 97.5036 365.323 92.1677 366.542 85.619C367.762 79.0703 364.162 71.3089 357.643 69.8932C351.962 68.6594 346.035 72.7458 343.93 78.1476C341.825 83.5495 342.946 89.7712 345.538 94.9595C350.134 104.166 359.402 110.902 369.605 112.444C379.808 113.986 390.66 110.295 397.79 102.861" stroke="#3B3748" stroke-width="4" stroke-linecap="round" stroke-linejoin="round"/>
<path d="M220.316 5.56653C207.092 13.4137 198.052 27.8293 196.75 43.1038" stroke="#3B3748" stroke-width="4" stroke-linecap="round" stroke-linejoin="round"/>
<path d="M26.5015 97.4193C41.4185 93.6472 58.0369 97.4684 69.7925 107.351" stroke="#3B3748" stroke-width="4" stroke-linecap="round" stroke-linejoin="round"/>
<path d="M18 14.2815C45.0412 21.9317 67.8186 43.2083 77.3555 69.672" stroke="#3B3748" stroke-width="4" stroke-linecap="round" stroke-linejoin="round"/>
<path d="M308.104 11.7561C302.312 7.61444 294.282 6.81043 287.779 9.72095C281.275 12.6315 276.544 19.1485 275.801 26.2139C275.29 31.078 276.779 36.3718 280.596 39.4405C284.412 42.5092 290.709 42.5355 293.856 38.7867C296.237 35.9631 296.34 31.7027 294.777 28.3704C293.214 25.0381 290.225 22.5441 286.964 20.8173C279.146 16.673 269.297 16.5992 261.411 20.6012C253.524 24.6031 247.806 32.607 246.582 41.3491" stroke="#3B3748" stroke-width="4" stroke-linecap="round" stroke-linejoin="round"/>
<path d="M195.436 302.069C145.134 267.934 144.002 206.668 131.675 211.21C126.623 212.81 130.378 232.028 132.855 242.351C127.713 230.09 124.485 205.637 118.198 207.287C109.949 208.364 115.077 229.953 116.674 240.734C113.305 233.17 112.917 208.298 105.725 208.05C96.9689 208.248 92.1149 255.099 127.495 302.069" stroke="#3B3748" stroke-width="4" stroke-linecap="round" stroke-linejoin="round"/>
</g>
<defs>
<clipPath id="clip0_1990_9344">
<rect width="410" height="316" fill="white"/>
</clipPath>
</defs>
</svg>
