<svg width="24" height="24" viewBox="0 0 24 24" fill="none" xmlns="http://www.w3.org/2000/svg">
<path d="M8.71289 4.79891C8.52542 4.98644 8.4201 5.24075 8.4201 5.50591C8.4201 5.77107 8.52542 6.02538 8.71289 6.21291L13.2989 10.7989C13.4814 10.989 13.5833 11.2424 13.5833 11.5059C13.5833 11.7694 13.4814 12.0228 13.2989 12.2129L8.71289 16.7989C8.53073 16.9875 8.42994 17.2401 8.43222 17.5023C8.4345 17.7645 8.53966 18.0153 8.72507 18.2007C8.91048 18.3861 9.16129 18.4913 9.42349 18.4936C9.68569 18.4959 9.93829 18.3951 10.1269 18.2129L14.7129 13.6279C14.9915 13.3493 15.2125 13.0186 15.3633 12.6546C15.5141 12.2906 15.5918 11.9004 15.5918 11.5064C15.5918 11.1124 15.5141 10.7223 15.3633 10.3582C15.2125 9.99423 14.9915 9.66349 14.7129 9.38491L10.1269 4.79891C9.93936 4.61144 9.68505 4.50612 9.41989 4.50612C9.15473 4.50612 8.90042 4.61144 8.71289 4.79891Z" fill="#3B3748"/>
</svg>
