<svg width="20" height="20" viewBox="0 0 20 20" fill="none" xmlns="http://www.w3.org/2000/svg">
<g clip-path="url(#clip0_43_477)">
<path d="M0.729977 11.74L3.96248 14.9725C4.11875 15.1287 4.33067 15.2165 4.55164 15.2165C4.77261 15.2165 4.98454 15.1287 5.14081 14.9725C5.29704 14.8162 5.3848 14.6043 5.3848 14.3833C5.3848 14.1624 5.29704 13.9504 5.14081 13.7942L2.17831 10.8333H19.1666C19.3877 10.8333 19.5996 10.7455 19.7559 10.5893C19.9122 10.433 20 10.221 20 10C20 9.77899 19.9122 9.56703 19.7559 9.41075C19.5996 9.25447 19.3877 9.16667 19.1666 9.16667H2.12748L5.14081 6.15084C5.29704 5.99456 5.3848 5.78264 5.3848 5.56167C5.3848 5.3407 5.29704 5.12878 5.14081 4.9725C4.98454 4.81628 4.77261 4.72852 4.55164 4.72852C4.33067 4.72852 4.11875 4.81628 3.96248 4.9725L0.729144 8.205C0.262001 8.67469 -0.000156092 9.31024 6.97271e-08 9.97268C0.000156232 10.6351 0.262613 11.2705 0.729977 11.74Z" fill="#3B3748"/>
</g>
<defs>
<clipPath id="clip0_43_477">
<rect width="20" height="20" fill="white"/>
</clipPath>
</defs>
</svg>
