<svg width="20" height="20" viewBox="0 0 20 20" fill="none" xmlns="http://www.w3.org/2000/svg">
<g clip-path="url(#clip0_5654_4051)">
<path d="M11.769 0.754879L15.0007 3.98738C15.1569 4.14365 15.2446 4.35558 15.2446 4.57655C15.2446 4.79752 15.1569 5.00944 15.0007 5.16571C14.8444 5.32194 14.6325 5.4097 14.4115 5.4097C14.1905 5.4097 13.9786 5.32194 13.8223 5.16571L10.8582 2.20321L10.8582 19.1915C10.8582 19.4126 10.7704 19.6245 10.6141 19.7808C10.4578 19.9371 10.2458 20.0249 10.0248 20.0249C9.8038 20.0249 9.59184 19.9371 9.43556 19.7808C9.27928 19.6245 9.19148 19.4126 9.19148 19.1915L9.19148 2.15238L6.17898 5.16571C6.10159 5.24319 6.00968 5.30466 5.90852 5.34659C5.80735 5.38853 5.69891 5.41012 5.5894 5.41012C5.47989 5.41012 5.37145 5.38853 5.27028 5.34659C5.16912 5.30466 5.07721 5.24319 4.99982 5.16571C4.84359 5.00944 4.75583 4.79752 4.75583 4.57655C4.75583 4.35558 4.84359 4.14365 4.99982 3.98738L8.23232 0.754046C8.70218 0.286596 9.33804 0.0242577 10.0008 0.0244141C10.6636 0.0245705 11.2993 0.287209 11.769 0.754879Z" fill="white"/>
</g>
<defs>
<clipPath id="clip0_5654_4051">
<rect width="20" height="20" fill="white"/>
</clipPath>
</defs>
</svg>
