<svg width="24" height="24" viewBox="0 0 24 24" fill="none" xmlns="http://www.w3.org/2000/svg">
<g clip-path="url(#clip0_1237_2339)">
<path d="M23.707 0.293C23.5195 0.105529 23.2652 0.000213623 23 0.000213623C22.7348 0.000213623 22.4805 0.105529 22.293 0.293L12 10.586L1.707 0.293C1.51947 0.105529 1.26516 0.000213623 1 0.000213623C0.734836 0.000213623 0.480528 0.105529 0.293 0.293C0.105529 0.480528 0.000213623 0.734836 0.000213623 1C0.000213623 1.26516 0.105529 1.51947 0.293 1.707L10.586 12L0.293 22.293C0.105529 22.4805 0.000213623 22.7348 0.000213623 23C0.000213623 23.2652 0.105529 23.5195 0.293 23.707C0.480528 23.8945 0.734836 23.9998 1 23.9998C1.26516 23.9998 1.51947 23.8945 1.707 23.707L12 13.414L22.293 23.707C22.4805 23.8945 22.7348 23.9998 23 23.9998C23.2652 23.9998 23.5195 23.8945 23.707 23.707C23.8945 23.5195 23.9998 23.2652 23.9998 23C23.9998 22.7348 23.8945 22.4805 23.707 22.293L13.414 12L23.707 1.707C23.8945 1.51947 23.9998 1.26516 23.9998 1C23.9998 0.734836 23.8945 0.480528 23.707 0.293Z" fill="#3B3748"/>
</g>
<defs>
<clipPath id="clip0_1237_2339">
<rect width="24" height="24" fill="white"/>
</clipPath>
</defs>
</svg>
