<svg width="531" height="48" viewBox="0 0 531 48" fill="none" xmlns="http://www.w3.org/2000/svg">
<path fill-rule="evenodd" clip-rule="evenodd" d="M12 15C7.02944 15 3 19.0294 3 24C3 28.9706 7.02944 33 12 33C16.9706 33 21 28.9706 21 24C21 19.0294 16.9706 15 12 15ZM1 24C1 17.9249 5.92487 13 12 13C18.0751 13 23 17.9249 23 24C23 30.0751 18.0751 35 12 35C5.92487 35 1 30.0751 1 24Z" fill="#7100FF"/>
<path fill-rule="evenodd" clip-rule="evenodd" d="M8 24C8 21.7909 9.79086 20 12 20C14.2091 20 16 21.7909 16 24C16 26.2091 14.2091 28 12 28C9.79086 28 8 26.2091 8 24Z" fill="#7100FF"/>
<path d="M37.31 29.18C40.01 29.18 42.08 27.11 42.08 24.41C42.08 21.71 40.01 19.64 37.31 19.64C34.61 19.64 32.54 21.71 32.54 24.41C32.54 27.11 34.61 29.18 37.31 29.18ZM37.31 27.47C35.69 27.47 34.52 26.3 34.52 24.41C34.52 22.52 35.69 21.35 37.31 21.35C38.93 21.35 40.1 22.52 40.1 24.41C40.1 26.3 38.93 27.47 37.31 27.47ZM43.6972 29H45.5872V25.22H50.0872V29H51.9772V19.82H50.0872V23.51H45.5872V19.82H43.6972V29ZM53.1486 29H55.1286L57.1086 21.53H58.2786L60.2586 29H62.2386L59.7186 19.82H55.6686L53.1486 29ZM67.1823 29.18C69.0723 29.18 70.0623 27.74 70.0623 27.74H70.1523V29H72.0423V19.82H70.1523V20.99H70.0623C70.0623 20.99 69.0723 19.64 67.1823 19.64C64.7523 19.64 62.8623 21.53 62.8623 24.41C62.8623 27.29 64.7523 29.18 67.1823 29.18ZM67.5423 27.47C65.9223 27.47 64.8423 26.39 64.8423 24.41C64.8423 22.43 65.9223 21.35 67.5423 21.35C69.0723 21.35 70.1523 22.43 70.1523 24.41C70.1523 26.39 69.0723 27.47 67.5423 27.47ZM74.1952 29H76.2652L80.4232 22.7H80.6032L80.5852 22.88V29H82.4752V19.82H80.4052L76.2472 26.12H76.0672L76.0852 25.94V19.82H74.1952V29ZM78.3352 17.84C80.2252 17.84 81.1252 16.85 81.1252 15.5H79.5952C79.5952 16.13 79.2352 16.49 78.3352 16.49C77.4352 16.49 77.0752 16.13 77.0752 15.5H75.5452C75.5452 16.85 76.4452 17.84 78.3352 17.84ZM84.6366 29H86.5266V25.22H91.0266V29H92.9166V19.82H91.0266V23.51H86.5266V19.82H84.6366V29Z" fill="#3B3748"/>
</svg>
